<?xml version="1.0" standalone="no"?>
<!DOCTYPE svg PUBLIC "-//W3C//DTD SVG 20010904//EN"
 "http://www.w3.org/TR/2001/REC-SVG-20010904/DTD/svg10.dtd">
<svg version="1.0" xmlns="http://www.w3.org/2000/svg"
 width="256.000000pt" height="256.000000pt" viewBox="0 0 256.000000 256.000000"
 preserveAspectRatio="xMidYMid meet">
<metadata>
Created by potrace 1.11, written by Peter Selinger 2001-2013
</metadata>
<g transform="translate(0.000000,256.000000) scale(0.100000,-0.100000)"
fill="#000000" stroke="none">
<path d="M771 2552 c3 -20 -3 -23 -18 -11 -16 13 -17 12 -4 -4 17 -22 12 -26
-109 -93 -103 -57 -125 -74 -108 -85 15 -9 8 -18 -18 -24 -37 -7 -95 -36 -90
-44 7 -11 -38 -31 -70 -31 -13 0 -27 -7 -30 -15 -7 -16 -46 -15 -149 4 -33 6
-86 11 -117 11 l-58 0 0 -74 c0 -68 2 -75 21 -78 13 -2 31 -20 45 -46 25 -45
25 -76 -1 -86 -8 -3 -15 -12 -15 -21 0 -8 -11 -20 -25 -25 -22 -8 -25 -15 -25
-59 0 -27 7 -62 15 -77 19 -37 19 -80 0 -88 -13 -5 -15 -57 -15 -390 0 -273 3
-393 12 -411 9 -19 9 -28 0 -37 -9 -9 -12 -126 -12 -440 l0 -428 721 0 720 1
-5 22 -6 22 11 -22 c11 -21 13 -21 366 -23 214 0 352 3 349 9 -3 5 2 12 11 15
15 6 15 8 3 16 -13 8 -12 10 3 10 10 0 15 5 12 10 -3 6 1 10 11 10 13 0 14 3
4 15 -10 12 -9 15 4 15 10 0 14 5 11 10 -3 6 1 17 9 26 9 9 14 20 11 25 -4 5
-1 9 4 9 6 0 11 6 11 13 0 6 11 33 25 59 14 26 25 53 25 60 0 8 9 30 19 51 10
20 22 49 26 64 3 16 13 35 21 44 7 8 15 38 16 65 2 27 6 51 10 54 3 3 8 19 11
35 46 273 55 332 55 345 -1 8 2 36 6 62 6 40 5 48 -9 48 -8 0 -18 -7 -21 -15
-10 -25 -25 -17 -18 10 6 24 4 25 -39 25 -25 0 -49 5 -52 10 -11 18 -25 10
-25 -15 0 -14 5 -25 11 -25 6 0 9 -6 6 -12 -7 -20 11 -58 27 -58 7 0 16 -9 19
-21 4 -16 2 -19 -11 -14 -13 5 -12 1 4 -16 19 -22 19 -22 -3 -10 -31 16 -33
15 -33 -26 0 -28 -3 -34 -10 -23 -16 26 -22 2 -7 -29 9 -17 11 -31 6 -31 -6 0
-5 -9 2 -21 13 -25 4 -301 -12 -361 -8 -30 -13 -35 -30 -31 -11 3 -24 16 -29
28 -14 36 -30 40 -31 8 -2 -23 -2 -24 -6 -6 -2 13 -8 23 -12 23 -5 0 -6 -12
-3 -26 3 -17 1 -25 -6 -21 -5 4 -13 0 -16 -9 -3 -8 -2 -13 3 -10 5 3 8 -5 7
-18 0 -14 -6 -22 -13 -19 -19 8 -38 -8 -22 -18 11 -7 10 -9 -4 -9 -11 0 -15
-4 -11 -12 5 -8 2 -9 -10 -5 -12 5 -24 -1 -38 -15 -11 -13 -17 -17 -13 -11 3
7 0 22 -7 32 -14 20 -14 20 -26 0 -7 -10 -9 -19 -4 -19 4 0 8 -8 9 -19 1 -14
-3 -17 -18 -14 -10 3 -19 1 -19 -5 0 -5 -10 -12 -22 -15 -23 -6 -23 -6 -3 10
20 15 20 15 -1 11 -14 -4 -21 0 -21 9 0 10 7 13 21 9 20 -5 20 -4 3 9 -10 7
-19 17 -20 22 -1 4 -6 7 -11 5 -5 -2 -3 4 4 13 11 13 10 14 -6 8 -17 -6 -17
-5 -5 10 8 10 11 20 7 24 -3 3 -6 0 -6 -7 0 -7 -3 -11 -6 -7 -14 14 -36 -25
-32 -58 2 -19 0 -31 -6 -28 -5 4 -7 -7 -3 -28 5 -21 4 -29 -2 -20 -7 11 -12 7
-25 -15 -9 -18 -15 -23 -16 -13 0 9 7 22 15 29 19 16 19 22 -1 46 -8 10 -13
14 -10 8 3 -7 -1 -17 -9 -24 -10 -8 -14 -24 -11 -40 2 -17 -1 -27 -9 -27 -7 0
-11 7 -7 15 3 10 0 13 -9 10 -7 -2 -16 -15 -20 -29 l-7 -24 -1 26 c-1 26 -30
50 -32 26 0 -7 -4 -3 -9 8 -5 11 -9 14 -9 8 -2 -23 -3 -28 -12 -46 -7 -13 -6
-17 6 -17 9 0 13 4 10 10 -4 6 1 7 12 3 14 -6 12 -9 -14 -20 -37 -15 -60 -48
-41 -59 7 -5 8 -2 3 7 -6 11 -5 12 5 2 16 -15 23 -46 9 -37 -5 3 -7 11 -3 17
3 7 0 5 -8 -3 -7 -8 -22 -22 -33 -30 -16 -11 -17 -11 -7 0 18 21 14 32 -7 18
-11 -7 -18 -14 -16 -18 1 -3 -16 -6 -40 -8 -38 -2 -43 0 -38 16 3 12 -1 19
-11 19 -9 0 -16 -8 -16 -18 0 -11 -7 -17 -20 -16 -18 1 -18 2 -2 21 9 11 11
16 5 12 -8 -4 -13 -1 -13 8 0 9 -5 16 -11 16 -8 0 -8 5 1 15 7 8 9 15 6 15 -4
0 -2 9 4 19 7 14 7 22 0 26 -6 4 -8 11 -5 16 10 15 -7 10 -27 -8 -18 -16 -25
-7 -10 13 4 5 -3 -2 -15 -15 -18 -21 -33 -26 -77 -28 -31 -1 -60 -4 -66 -8 -5
-3 -10 -2 -10 3 0 6 12 13 27 17 15 3 33 14 40 23 10 14 12 14 13 2 0 -13 1
-13 10 0 8 12 10 12 10 1 0 -17 15 -5 15 12 1 7 6 11 13 9 7 -1 12 4 12 12 0
8 8 17 18 19 15 4 15 5 0 6 -9 0 -20 -3 -23 -9 -11 -17 -54 -11 -65 9 -5 11
-18 18 -27 16 -27 -4 -36 5 -22 21 10 12 10 15 -1 12 -8 -2 -14 2 -15 9 0 6
-3 15 -7 19 -5 4 -8 20 -8 35 0 21 5 27 23 28 60 3 74 7 70 18 -3 7 -10 11
-16 10 -6 -1 -12 7 -14 18 -3 15 -2 17 5 6 6 -8 12 -9 16 -3 4 7 17 5 37 -5
17 -8 33 -12 36 -9 9 8 -68 76 -79 70 -5 -3 -5 -11 1 -18 7 -8 5 -12 -9 -13
-13 -1 -18 4 -15 15 2 10 -4 26 -12 37 -15 19 -15 19 -11 -7 l5 -27 -36 34
c-29 29 -37 32 -44 20 -4 -9 -13 -13 -18 -9 -12 7 -1 -45 13 -63 8 -10 4 -10
-21 -2 -17 6 -28 15 -25 21 4 6 10 5 15 -3 5 -8 9 -9 9 -3 0 5 -7 19 -15 30
-13 16 -14 16 -9 2 4 -11 1 -18 -6 -18 -8 0 -10 15 -8 47 3 30 9 47 16 45 7
-1 12 3 12 9 0 8 5 7 15 -1 13 -10 18 -11 28 -1 9 10 8 11 -8 5 -17 -7 -18 -6
-5 8 8 9 17 12 18 7 2 -5 8 -7 12 -4 5 3 8 -4 7 -15 -1 -11 -5 -20 -10 -20 -4
0 -5 -4 -2 -10 11 -18 22 -11 21 13 -1 13 4 21 12 19 6 -1 12 3 12 9 0 6 9 9
20 6 20 -5 24 12 5 25 -6 5 -4 8 5 8 12 0 12 2 2 9 -7 4 -14 17 -15 29 0 11
-5 18 -9 16 -5 -3 -11 2 -14 10 -9 23 -48 21 -40 -1 5 -15 3 -14 -10 2 -16 20
-16 20 -12 0 4 -17 0 -20 -21 -20 -14 0 -26 -6 -26 -13 0 -7 -7 -17 -15 -22
-12 -8 -12 -10 -1 -10 8 0 12 -3 9 -6 -4 -3 -19 3 -34 13 -16 10 -25 13 -21 6
4 -7 0 -16 -11 -22 -14 -8 -18 -6 -18 10 0 10 5 19 11 19 5 0 3 5 -5 10 -9 6
-10 10 -3 10 6 0 15 9 18 21 5 15 10 18 18 10 7 -7 16 -7 29 0 14 7 18 6 18
-5 0 -9 7 -12 20 -9 25 7 26 23 2 23 -23 0 -32 8 -26 25 3 7 14 11 25 8 13 -4
19 0 19 11 0 10 5 14 10 11 6 -3 16 -3 23 2 6 4 38 9 70 10 44 2 56 0 51 -10
-5 -7 0 -5 11 3 11 9 16 10 11 3 -4 -7 -3 -13 1 -13 5 0 15 6 22 13 11 10 13
9 8 -5 -4 -11 -1 -18 6 -18 7 0 25 -14 40 -31 15 -17 20 -29 12 -25 -8 3 -15
1 -15 -3 0 -5 6 -12 13 -14 7 -3 5 -6 -5 -6 -10 -1 -18 -6 -18 -12 0 -6 -9 -9
-20 -6 -25 6 -26 -2 -3 -18 16 -12 15 -13 -9 -8 -14 3 -36 0 -48 -7 l-22 -12
26 -18 c23 -14 25 -18 11 -24 -24 -9 -32 -7 -15 4 9 6 10 10 3 10 -6 0 -15 -5
-18 -10 -10 -17 19 -22 51 -9 16 7 38 11 49 10 16 -2 18 0 8 10 -18 18 -16 32
2 25 8 -3 19 2 24 12 9 15 10 15 11 -3 0 -17 2 -17 10 -5 7 11 10 11 10 2 0
-7 4 -11 9 -7 5 3 13 -4 16 -16 4 -13 12 -18 21 -15 8 3 13 2 10 -3 -3 -5 1
-12 10 -15 23 -9 24 -8 24 15 0 16 4 20 18 15 11 -4 9 0 -6 12 -27 21 -19 34
17 27 23 -5 24 -4 5 4 -29 13 -76 61 -61 62 7 0 1 6 -13 12 -24 12 -25 13 -8
30 17 16 18 16 18 -4 0 -16 5 -20 20 -16 11 3 17 1 14 -4 -8 -13 6 -50 17 -44
5 4 9 -2 9 -12 1 -17 1 -17 15 0 11 16 11 21 -3 36 -25 26 -45 58 -43 66 2 4
-3 12 -11 16 -9 6 -10 9 -1 9 7 0 19 -13 28 -30 20 -38 25 -38 22 0 -1 16 -5
30 -8 30 -4 0 -9 7 -13 15 -5 13 -2 14 17 4 15 -7 11 0 -12 20 -37 34 -65 43
-37 12 10 -11 15 -25 11 -30 -8 -13 -26 -15 -23 -2 2 5 -7 18 -20 29 -13 11
-22 24 -21 29 1 4 -6 10 -16 12 -17 3 -18 1 -6 -13 8 -9 11 -19 7 -23 -3 -3
-6 -2 -6 4 0 14 -28 12 -34 -3 -3 -8 -1 -16 4 -19 17 -11 11 -24 -10 -22 -11
1 -20 5 -20 10 0 4 -6 5 -12 1 -10 -6 -10 -4 0 7 6 7 12 22 12 33 0 17 -2 18
-9 6 -6 -8 -8 -17 -6 -20 2 -4 -2 -7 -9 -7 -15 0 -15 14 -2 36 7 11 6 12 -5 5
-19 -12 -32 -12 -46 -1 -10 7 -13 3 -13 -13 0 -13 -5 -20 -12 -18 -7 3 -20 -5
-30 -16 -17 -21 -17 -21 -11 4 3 14 10 31 16 38 7 9 2 12 -22 12 -18 0 -30 4
-27 9 3 4 1 22 -4 40 -6 20 -5 31 2 31 6 0 8 10 4 26 -5 17 -3 24 6 22 7 -1
26 1 42 6 23 6 27 9 15 17 -37 23 -112 -1 -94 -30 3 -6 2 -18 -2 -26 -8 -13
-16 -9 -48 20 -22 19 -48 38 -57 41 -10 3 -18 10 -18 16 0 5 -10 18 -21 27
-17 14 -20 21 -11 37 5 10 12 39 16 63 3 25 10 47 14 50 16 10 32 49 32 75 0
38 -18 41 -23 4 -3 -18 -4 -4 -4 32 1 36 5 71 10 77 5 7 7 20 3 28 -3 8 -1 15
5 15 13 0 3 72 -11 80 -5 3 -14 24 -20 45 -10 39 -10 39 -5 -12 4 -57 -5 -66
-29 -31 -9 12 -16 19 -16 14 0 -5 -8 -2 -18 7 -10 10 -21 14 -25 11 -9 -9 -69
21 -89 45 -9 10 -13 22 -10 26 4 4 -1 5 -10 3 -9 -1 -17 2 -18 7 0 6 9 11 20
13 12 2 20 8 18 14 -2 5 -7 9 -12 8 -16 -3 -25 24 -15 43 8 14 13 16 25 6 10
-8 14 -8 14 0 0 6 6 11 14 11 7 0 19 7 26 15 9 10 9 15 1 15 -6 0 -11 5 -11
11 0 6 6 9 13 6 6 -2 20 2 30 11 9 8 17 11 17 6 0 -5 11 -11 25 -12 19 -1 25
2 23 15 -2 12 6 19 28 23 17 4 47 19 66 33 19 15 41 27 49 27 8 0 23 12 34 27
31 41 56 62 69 57 7 -3 18 7 24 21 7 15 8 24 2 20 -6 -4 -7 1 -3 11 4 11 8 13
11 6 5 -17 15 -15 42 8 12 11 27 17 32 14 5 -3 18 4 29 17 20 24 49 34 49 18
0 -5 -5 -9 -11 -9 -6 0 -9 -6 -6 -13 3 -7 -4 -24 -14 -38 -10 -13 -19 -34 -19
-46 0 -11 -13 -32 -29 -45 -16 -14 -34 -35 -41 -49 -7 -13 20 9 59 49 40 40
79 88 87 108 8 19 18 32 23 29 18 -10 20 25 4 70 -8 25 -12 49 -9 52 3 4 6 -1
6 -10 0 -20 16 -23 24 -4 3 6 3 -3 0 -21 -6 -43 9 -68 16 -27 4 17 12 29 19
27 9 -2 10 4 5 20 -5 17 6 10 40 -25 25 -27 46 -51 46 -55 0 -4 7 -16 16 -27
13 -18 14 -17 8 14 -5 25 -4 32 4 27 7 -4 12 -17 12 -29 0 -16 3 -18 9 -9 8
14 33 -67 46 -151 6 -39 25 -42 25 -4 0 12 -10 54 -21 92 -18 60 -24 85 -28
128 -1 5 -6 5 -13 1 -7 -4 -8 -3 -4 4 4 7 2 12 -4 12 -7 0 -10 6 -7 13 5 14
-31 43 -47 39 -5 -2 -6 4 -3 12 4 9 1 15 -6 13 -6 -1 -13 8 -15 20 -2 12 -10
27 -18 33 -16 14 -19 35 -4 25 6 -3 10 1 10 9 0 10 6 13 18 9 14 -5 13 -3 -3
10 -17 14 -17 16 -4 17 9 0 22 -7 29 -15 6 -8 16 -13 20 -12 9 2 38 -16 83
-53 25 -20 28 -21 17 -4 -7 11 -29 31 -49 45 -20 13 -43 32 -52 41 -9 10 -18
15 -21 13 -2 -3 -5 2 -5 10 0 11 4 12 13 4 7 -6 17 -8 22 -5 11 7 35 -18 26
-27 -11 -11 36 -28 54 -19 13 7 23 3 42 -16 l25 -24 -25 5 c-21 5 -22 4 -10
-6 8 -7 16 -19 18 -27 2 -8 9 -18 15 -22 14 -8 39 11 31 24 -3 5 -11 5 -19 -2
-9 -8 -15 -8 -20 0 -3 5 -1 10 5 10 6 0 8 5 4 12 -5 8 -1 9 12 4 32 -12 -79
85 -116 101 -36 16 -94 72 -84 82 3 3 9 -1 13 -8 5 -8 14 -10 21 -6 8 5 11 4
6 -3 -3 -6 9 -22 27 -36 41 -31 73 -35 37 -5 l-25 21 25 -14 c14 -9 25 -21 25
-28 0 -20 37 -40 62 -34 15 4 23 2 23 -7 0 -7 3 -9 7 -6 3 4 -6 18 -21 32 -15
14 -25 29 -22 34 4 5 -5 8 -19 6 -14 -1 -28 2 -32 8 -4 6 -1 7 8 3 8 -4 5 0
-6 9 -11 9 -19 18 -17 20 7 14 0 25 -15 25 -15 0 -14 -2 3 -15 10 -8 15 -14 9
-14 -5 0 -19 6 -29 14 -19 14 -18 15 5 25 19 8 20 9 4 8 -11 -1 -34 6 -52 15
-35 19 -80 25 -53 7 9 -6 10 -10 3 -10 -6 0 -15 5 -18 10 -4 6 -57 10 -126 10
-67 0 -118 -4 -115 -9 3 -5 22 -17 42 -27 94 -49 100 -53 78 -54 -11 0 -41 13
-67 30 -26 16 -47 27 -47 24 0 -2 -10 4 -22 15 -20 20 -34 20 -339 20 -175 0
-318 -4 -318 -7z m974 -22 c3 -6 -1 -7 -9 -4 -18 7 -21 14 -7 14 6 0 13 -4 16
-10z m-860 -10 c-3 -5 -12 -10 -18 -10 -7 0 -6 4 3 10 19 12 23 12 15 0z m-70
-75 c-8 -21 -18 -36 -20 -33 -3 3 2 22 10 43 9 20 18 35 21 32 3 -3 -2 -22
-11 -42z m823 18 c-10 -2 -26 -2 -35 0 -10 3 -2 5 17 5 19 0 27 -2 18 -5z
m-958 -23 c0 -6 -12 -15 -27 -21 -16 -6 -35 -17 -43 -24 -21 -19 -70 -37 -70
-25 0 7 93 60 138 79 1 1 2 -4 2 -9z m965 -18 c-3 -3 -11 0 -18 7 -9 10 -8 11
6 5 10 -3 15 -9 12 -12z m242 1 c-4 -3 -1 -13 6 -21 11 -13 9 -14 -10 -1 -16
9 -19 16 -10 21 15 9 23 10 14 1z m-466 -20 c13 -16 12 -17 -3 -4 -10 7 -18
15 -18 17 0 8 8 3 21 -13z m400 -25 c8 -15 8 -18 0 -14 -6 4 -16 16 -22 28 -8
15 -8 18 0 14 6 -4 16 -16 22 -28z m-1061 17 c0 -2 -10 -10 -22 -16 -21 -11
-22 -11 -9 4 13 16 31 23 31 12z m881 -22 c13 -16 12 -17 -3 -4 -10 7 -18 15
-18 17 0 8 8 3 21 -13z m-117 -1 c3 -5 -1 -9 -9 -9 -8 0 -12 4 -9 9 3 4 7 8 9
8 2 0 6 -4 9 -8z m-814 -10 c0 -13 -12 -22 -22 -16 -10 6 -1 24 13 24 5 0 9
-4 9 -8z m120 4 c0 -2 -7 -7 -16 -10 -8 -3 -12 -2 -9 4 6 10 25 14 25 6z
m-156 -25 c3 -5 0 -11 -7 -14 -8 -3 -14 1 -14 9 0 16 13 19 21 5z m906 -1 c0
5 4 10 8 10 5 0 9 -6 9 -14 0 -16 -35 -13 -51 5 -8 8 -5 8 12 0 14 -8 22 -8
22 -1z m-940 -23 c0 -5 -7 -7 -14 -4 -10 4 -13 1 -10 -8 3 -7 -3 -16 -13 -19
-11 -3 -34 -21 -53 -40 -19 -18 -40 -31 -47 -29 -7 3 -13 1 -13 -5 0 -6 6 -12
12 -14 7 -3 3 -7 -9 -10 -12 -3 -22 -3 -21 1 2 18 -4 21 -22 11 -11 -6 -20
-16 -20 -23 0 -7 -8 -21 -16 -32 -16 -20 -16 -19 -9 4 5 18 4 22 -5 16 -9 -5
-11 -4 -6 4 4 6 12 9 18 5 5 -3 3 7 -6 24 l-15 30 47 19 c26 11 62 19 80 18
24 -1 29 1 21 11 -7 8 -7 14 1 19 6 3 7 11 4 17 -4 7 -2 8 5 4 9 -6 9 -11 0
-22 -20 -24 9 -17 37 9 26 24 54 31 54 14z m157 -29 c-3 -8 -6 -5 -6 6 -1 11
2 17 5 13 3 -3 4 -12 1 -19z m846 -21 c10 -17 13 -26 6 -20 -10 10 -17 9 -31
-4 -18 -16 -19 -16 -9 10 7 17 7 28 1 32 -15 9 -12 25 3 20 6 -3 20 -20 30
-38z m-1126 17 c-3 -3 -12 -4 -19 -1 -8 3 -5 6 6 6 11 1 17 -2 13 -5z m1060
-26 c-3 -7 -5 -2 -5 12 0 14 2 19 5 13 2 -7 2 -19 0 -25z m-808 -28 c-12 -22
-24 -38 -26 -36 -4 4 37 76 44 76 2 0 -6 -18 -18 -40z m990 -70 c0 -8 -6 0
-14 19 -8 18 -15 36 -15 40 1 13 29 -45 29 -59z m-1116 -15 c-3 -9 -8 -14 -10
-11 -3 3 -2 9 2 15 9 16 15 13 8 -4z m908 -38 c-10 -9 -11 -8 -5 6 3 10 9 15
12 12 3 -3 0 -11 -7 -18z m-1151 -12 c0 -14 -4 -25 -9 -25 -4 0 -6 11 -3 25 2
14 6 25 8 25 2 0 4 -11 4 -25z m957 -72 c2 -6 -5 -13 -17 -16 -22 -6 -23 -5
-14 18 7 17 25 16 31 -2z m-939 -18 c-3 -3 -9 2 -12 12 -6 14 -5 15 5 6 7 -7
10 -15 7 -18z m704 -32 c-16 -16 -38 -43 -51 -60 -12 -18 -28 -33 -34 -33 -8
0 -8 3 -2 8 6 4 26 27 45 52 35 46 49 60 62 60 4 0 -5 -12 -20 -27z m-292 -23
c0 -5 -7 -10 -16 -10 -8 0 -12 5 -9 10 3 6 10 10 16 10 5 0 9 -4 9 -10z m16
-16 c-4 -9 -9 -15 -11 -12 -3 3 -3 13 1 22 4 9 9 15 11 12 3 -3 3 -13 -1 -22z
m84 -54 c0 -5 -2 -10 -4 -10 -3 0 -8 5 -11 10 -3 6 -1 10 4 10 6 0 11 -4 11
-10z m37 -26 c-3 -3 -12 -4 -19 -1 -8 3 -5 6 6 6 11 1 17 -2 13 -5z m23 -74
c0 -5 -7 -10 -16 -10 -8 0 -12 5 -9 10 3 6 10 10 16 10 5 0 9 -4 9 -10z m-176
-151 c-3 -5 -10 -7 -15 -3 -5 3 -7 10 -3 15 3 5 10 7 15 3 5 -3 7 -10 3 -15z
m186 -203 c0 -12 -5 -27 -12 -34 -9 -9 -6 -11 10 -7 16 3 22 -1 22 -14 0 -9 5
-22 12 -29 9 -9 9 -12 0 -12 -7 0 -12 -13 -12 -29 0 -17 -4 -33 -10 -36 -5 -3
-10 -12 -10 -18 0 -8 3 -8 9 1 7 11 9 11 14 -1 3 -8 -8 -34 -24 -58 -16 -24
-29 -48 -29 -53 0 -19 -63 -86 -81 -86 -10 0 -19 -6 -20 -12 0 -7 -5 2 -10 20
-6 20 -16 32 -27 32 -15 1 -15 2 -2 13 16 12 15 45 -2 62 -6 7 -7 0 -4 -20 l6
-30 -14 30 c-9 17 -15 36 -16 43 0 6 -4 12 -8 12 -14 0 -42 58 -36 73 6 17 28
17 46 -1 7 -7 21 -12 32 -11 20 0 20 0 0 9 -26 10 -29 15 -38 55 l-7 30 21
-22 c21 -23 36 -31 25 -14 -3 5 16 9 42 9 60 -1 93 4 93 13 0 4 -17 6 -37 4
l-38 -5 40 14 40 14 -55 2 c-30 0 -66 7 -79 14 -23 13 -23 13 -2 19 11 3 19 1
16 -3 -10 -16 10 -19 57 -9 37 8 50 16 60 39 14 32 28 30 28 -4z m-460 -168
c-6 -13 -13 -31 -16 -40 -7 -20 -34 -25 -34 -7 0 9 50 69 57 69 1 0 -2 -10 -7
-22z m-60 -6 c0 -12 -39 -46 -45 -40 -6 5 27 48 38 48 4 0 7 -4 7 -8z m-63
-52 c-1 -11 -7 -20 -14 -20 -11 0 -11 4 -1 20 7 11 14 20 15 20 1 0 1 -9 0
-20z m-16 -61 c-35 -28 -51 -22 -17 7 15 14 31 22 35 19 3 -4 -5 -15 -18 -26z
m189 -81 c0 -59 0 -60 25 -54 20 5 23 3 18 -11 -4 -11 -3 -14 5 -9 7 4 14 -2
17 -17 4 -12 15 -28 26 -35 16 -11 19 -9 19 9 0 13 -4 18 -12 13 -7 -4 -8 -3
-4 5 4 6 12 9 17 6 5 -4 9 -1 9 6 0 16 38 -18 45 -42 7 -22 87 -53 117 -46 20
5 21 4 7 -6 -23 -17 -23 -30 -2 -38 17 -7 17 -8 1 -8 -10 -1 -18 -5 -18 -10 0
-14 -37 -20 -51 -7 -11 9 -11 8 -1 -5 10 -14 10 -18 -4 -23 -9 -3 -21 -3 -26
1 -6 3 -8 1 -4 -5 10 -16 -17 -21 -35 -6 -13 12 -16 12 -16 -1 0 -8 4 -12 9
-9 4 3 11 -2 14 -10 3 -9 14 -16 23 -16 14 0 14 -2 1 -11 -13 -9 -13 -10 0 -6
8 2 14 10 12 16 -1 6 7 11 17 11 12 0 21 10 26 27 5 20 9 23 15 13 9 -15 -8
-50 -25 -50 -5 0 -15 -11 -21 -25 -10 -21 -9 -25 8 -31 13 -4 16 -9 9 -17 -5
-7 -12 -29 -16 -49 -4 -20 -13 -39 -21 -42 -10 -4 -11 0 -4 19 6 16 6 25 0 25
-12 0 -24 -45 -15 -59 3 -6 1 -11 -4 -11 -6 0 -11 -15 -10 -32 1 -31 1 -32 9
-8 4 14 8 19 9 11 1 -21 14 -4 16 21 1 12 6 23 12 25 7 3 10 -7 9 -22 -3 -24
-2 -25 15 -9 11 9 19 24 18 33 0 12 -3 11 -9 -4 -5 -11 -9 -15 -9 -9 -1 7 6
27 14 45 8 19 14 30 15 24 0 -5 5 -3 10 5 7 12 12 12 22 2 9 -9 9 -12 -1 -12
-7 0 -10 -4 -6 -9 3 -5 -2 -17 -11 -25 -18 -19 -4 -22 15 -3 11 10 13 9 8 -6
-6 -16 -5 -16 18 -1 15 10 25 12 25 5 0 -6 6 -10 13 -9 6 2 11 -3 9 -9 -2 -14
10 -17 22 -6 4 4 19 9 34 10 21 3 24 1 12 -7 -12 -8 -10 -10 9 -10 l24 0 -24
-27 c-13 -14 -18 -23 -11 -19 6 4 12 3 12 -3 0 -5 -8 -12 -17 -14 -15 -4 -15
-5 2 -6 11 0 32 7 45 16 l25 16 -23 -25 c-24 -26 -19 -46 6 -25 13 10 14 9 4
-10 -18 -33 -14 -39 8 -13 11 13 20 18 20 12 0 -6 -5 -14 -11 -18 -8 -4 -8 -9
0 -17 13 -13 15 -30 2 -22 -5 3 -13 1 -16 -5 -4 -6 -3 -9 2 -8 4 1 23 -6 41
-17 33 -20 40 -52 10 -47 -9 1 -20 -3 -24 -9 -4 -8 -3 -9 4 -5 7 4 12 3 12 -2
0 -5 -9 -12 -20 -15 -30 -8 -15 -38 16 -33 13 3 26 0 30 -5 3 -6 12 -8 20 -5
19 7 25 -6 11 -24 -18 -23 -57 -24 -76 -3 -9 10 -18 21 -18 26 -4 23 -12 32
-20 21 -12 -16 -75 -25 -93 -14 -15 10 -15 10 39 14 8 1 16 7 19 14 2 6 10 12
18 12 8 0 14 8 13 18 0 9 -3 12 -5 5 -3 -7 -12 -9 -20 -6 -8 3 -20 1 -27 -5
-6 -5 -25 -12 -41 -16 -23 -6 -27 -4 -23 8 7 19 -9 22 -17 4 -4 -9 -5 -8 -5 2
2 26 -12 58 -28 64 -22 9 -32 -1 -26 -27 4 -20 4 -20 -9 3 -8 14 -21 25 -30
25 -9 0 -20 4 -24 8 -4 4 -14 7 -22 7 -12 0 -11 -5 3 -27 l18 -28 -21 19 c-11
10 -23 28 -26 40 -2 11 -4 5 -3 -15 2 -20 -2 -36 -8 -36 -6 0 -9 17 -6 40 2
28 0 38 -8 32 -8 -5 -10 2 -6 22 3 15 2 21 -1 13 -4 -8 -12 -18 -18 -22 -7 -5
-7 -19 1 -48 8 -33 8 -40 -2 -36 -15 5 -9 -23 12 -64 19 -37 16 -46 -9 -24
-20 18 -21 18 -15 1 4 -10 3 -16 -2 -12 -6 3 -14 -3 -20 -12 -6 -10 -11 -13
-11 -8 0 6 5 16 11 22 7 7 3 10 -16 7 -41 -4 -57 5 -49 28 4 13 2 18 -4 14 -6
-3 -13 -2 -17 4 -3 5 1 10 9 10 9 0 16 2 16 4 0 2 3 11 6 20 3 9 1 16 -6 16
-6 0 -9 -4 -5 -9 3 -5 1 -12 -5 -16 -5 -3 -10 0 -10 7 0 9 -3 9 -10 -2 -7 -12
-10 -8 -10 15 -1 28 -2 29 -10 8 -5 -13 -11 -23 -13 -23 -7 0 -1 56 8 71 4 8
5 11 0 7 -15 -14 -35 14 -36 51 0 28 -2 32 -8 16 -7 -17 -9 -16 -12 10 -3 17
-2 41 2 55 5 20 7 21 8 6 1 -16 4 -17 13 -8 9 9 8 15 -7 25 -12 10 -14 16 -7
21 7 4 12 16 12 27 0 11 5 17 10 14 6 -3 10 -4 10 -1 0 2 3 13 7 23 6 16 5 17
-12 3 -11 -9 -16 -10 -11 -2 4 7 2 12 -6 12 -10 0 -10 2 1 9 8 5 9 11 3 15
-13 8 -25 -10 -17 -24 4 -6 1 -18 -7 -27 -9 -12 -9 -15 0 -9 8 5 11 1 9 -16
-2 -13 -10 -23 -18 -23 -7 0 -15 -9 -18 -20 -3 -17 -2 -18 14 -5 17 14 17 13
1 -17 -17 -33 -33 -46 -22 -18 3 8 1 15 -4 15 -6 0 -10 -6 -11 -12 0 -9 -2 -9
-6 1 -5 12 -14 24 -58 72 -8 9 -15 28 -15 42 0 15 -5 27 -12 27 -6 0 -3 7 8
15 19 14 19 14 0 15 -18 0 -18 1 -2 19 10 11 16 26 14 33 -3 7 2 18 11 25 11
9 12 12 3 13 -7 0 -10 5 -7 10 4 6 10 8 15 5 11 -7 50 12 50 24 0 5 -15 8 -32
7 -28 -1 -34 3 -36 23 -3 20 0 23 17 18 11 -3 25 1 31 7 14 18 0 28 -18 13
-13 -9 -14 -9 -8 1 10 17 -10 15 -28 -4 -15 -14 -16 -14 -13 5 2 11 15 31 30
45 30 27 41 90 12 66 -8 -7 -15 -9 -15 -4 -1 5 -10 -2 -20 -15 -15 -17 -20
-19 -20 -8 0 9 -10 23 -21 31 -29 20 -19 49 14 41 19 -5 26 -1 37 22 13 28 13
28 19 5 3 -13 9 -23 14 -23 4 1 11 1 16 1 4 0 13 15 18 33 l10 32 -2 -40 c0
-22 -7 -50 -13 -62 -7 -13 -10 -23 -7 -23 21 0 48 27 65 65 14 30 27 45 39 45
10 0 21 7 25 15 3 8 12 12 21 9 11 -5 15 -21 15 -66z m1837 -50 c-3 -8 -6 -5
-6 6 -1 11 2 17 5 13 3 -3 4 -12 1 -19z m-1217 -28 c0 8 3 10 7 7 10 -11 -29
-48 -45 -42 -7 3 -23 0 -35 -7 -19 -10 -20 -9 -10 4 7 8 9 19 5 23 -4 5 -1 5
6 1 6 -4 19 0 28 9 12 12 19 13 30 4 11 -9 14 -8 14 1z m-437 -37 c5 -26 4
-26 -9 -9 -7 10 -11 23 -8 27 8 14 11 11 17 -18z m313 -15 c4 -6 3 -8 -4 -4
-6 3 -13 -2 -15 -11 -4 -14 -5 -13 -6 5 -1 23 13 30 25 10z m158 -28 c-6 -6
-10 -2 -11 12 -2 16 1 18 10 9 7 -7 8 -14 1 -21z m73 -42 c-3 -8 -6 -5 -6 6
-1 11 2 17 5 13 3 -3 4 -12 1 -19z m253 -101 c0 -16 -18 3 -23 25 -6 22 -5 22
8 4 8 -11 15 -24 15 -29z m-780 3 c-8 -5 -19 -10 -25 -10 -5 0 -3 5 5 10 8 5
20 10 25 10 6 0 3 -5 -5 -10z m297 -35 c0 -8 -8 -22 -17 -30 -14 -13 -17 -13
-17 0 0 8 4 12 8 9 4 -2 10 0 14 6 3 5 -2 10 -12 11 -16 0 -16 1 2 9 11 5 20
9 21 9 0 1 1 -6 1 -14z m487 -41 c30 7 39 -4 30 -39 -4 -17 -13 -25 -27 -25
-20 0 -20 1 -2 13 21 16 13 37 -14 37 -10 0 -26 10 -37 23 l-19 22 22 -19 c15
-12 30 -16 47 -12z m-711 0 c-6 -16 -33 -27 -33 -14 0 6 6 11 13 11 6 1 -1 5
-18 9 -30 8 -30 8 6 7 25 -1 35 -5 32 -13z m441 -13 c-2 -3 -12 3 -22 13 -16
17 -16 18 5 5 12 -7 20 -15 17 -18z m-214 -126 c0 -1 -9 -5 -20 -8 -12 -3 -20
0 -20 8 0 8 8 11 20 8 11 -3 20 -7 20 -8z m22 -51 c-6 -12 -9 -7 -9 16 0 23 3
28 9 16 5 -9 5 -23 0 -32z m45 26 c-3 -11 -2 -20 3 -20 4 0 10 -15 13 -32 3
-18 8 -44 12 -58 11 -35 -7 -16 -22 23 -11 30 -12 30 -12 7 -1 -19 -3 -22 -10
-10 -6 8 -7 18 -4 24 3 5 1 6 -6 2 -6 -4 -9 -12 -6 -17 4 -5 1 -9 -4 -9 -16 0
-13 16 4 30 8 7 15 25 15 40 0 25 7 40 18 40 2 0 2 -9 -1 -20z m103 16 c0 -3
-4 -8 -10 -11 -5 -3 -10 -1 -10 4 0 6 5 11 10 11 6 0 10 -2 10 -4z m-59 -93
c13 -16 12 -17 -3 -4 -10 7 -18 15 -18 17 0 8 8 3 21 -13z m-62 -62 c-1 -12
-2 -11 -6 3 -4 15 -7 16 -14 5 -6 -10 -8 -8 -6 8 1 17 4 19 14 11 7 -6 12 -18
12 -27z m-614 9 c3 -6 -1 -7 -9 -4 -18 7 -21 14 -7 14 6 0 13 -4 16 -10z m193
-31 c-3 -8 -7 -3 -11 10 -4 17 -3 21 5 13 5 -5 8 -16 6 -23z m462 -64 c0 -5
-4 -4 -9 4 -6 9 -11 10 -15 2 -4 -6 -15 -11 -24 -10 -13 0 -12 3 6 11 12 6 22
16 22 22 0 6 5 4 10 -4 5 -8 10 -19 10 -25z m-446 9 c3 -8 2 -12 -4 -9 -6 3
-10 10 -10 16 0 14 7 11 14 -7z m432 -36 c6 -9 -65 -3 -74 7 -4 3 11 5 32 3
20 -1 40 -6 42 -10z m71 -51 c-9 -7 -9 -10 1 -14 6 -2 10 -9 7 -14 -4 -5 -12
-3 -19 3 -10 10 -11 19 -3 36 7 16 13 19 18 10 4 -7 3 -16 -4 -21z m-273 15
c3 -5 -1 -9 -9 -9 -8 0 -12 4 -9 9 3 4 7 8 9 8 2 0 6 -4 9 -8z m161 -52 c-3
-5 -2 -10 4 -10 5 0 11 6 14 13 3 6 4 2 4 -10 -1 -18 -4 -20 -19 -12 -16 9
-17 29 -2 29 3 0 2 -4 -1 -10z m324 -29 c-21 -9 -23 -43 -3 -58 10 -8 13 -13
5 -13 -7 0 -9 -4 -6 -10 3 -5 -1 -10 -9 -10 -9 0 -17 8 -18 18 -4 53 14 98 35
85 7 -4 6 -8 -4 -12z m391 -5 c0 -14 -4 -27 -9 -30 -5 -4 -7 3 -4 15 4 12 0
25 -8 30 -11 7 -10 9 4 9 11 0 17 -8 17 -24z m-913 8 c-3 -3 -12 -4 -19 -1 -8
3 -5 6 6 6 11 1 17 -2 13 -5z m158 -4 c3 -6 -1 -7 -9 -4 -18 7 -21 14 -7 14 6
0 13 -4 16 -10z m639 -15 c-4 -8 -11 -12 -16 -9 -6 4 -5 10 3 15 19 12 19 11
13 -6z m-584 -41 c0 -2 -9 -4 -20 -4 -11 0 -20 4 -20 9 0 5 9 7 20 4 11 -3 20
-7 20 -9z m260 -44 c-4 -8 -5 -22 -3 -30 3 -10 0 -9 -7 3 -6 9 -8 22 -4 29 5
8 0 9 -17 5 -22 -5 -22 -5 -6 7 9 7 17 19 17 27 0 8 5 6 14 -6 8 -12 11 -26 6
-35z"/>
<path d="M980 1356 c0 -2 7 -6 15 -10 8 -3 15 -1 15 4 0 6 -7 10 -15 10 -8 0
-15 -2 -15 -4z"/>
<path d="M930 1264 c-23 -12 -23 -14 -4 -14 11 0 29 7 40 15 25 19 -1 19 -36
-1z"/>
<path d="M717 953 c-10 -10 -8 -35 2 -29 5 4 12 0 14 -6 4 -9 6 -8 6 2 1 20
-14 42 -22 33z"/>
<path d="M516 914 c-9 -24 -7 -28 9 -14 17 14 20 30 6 30 -5 0 -12 -7 -15 -16z"/>
<path d="M646 921 c-3 -4 -10 -21 -16 -37 -11 -27 -10 -27 8 -11 15 13 21 14
32 4 9 -7 8 -4 -1 8 -9 11 -14 26 -12 33 5 14 -3 17 -11 3z"/>
<path d="M440 881 c-12 -18 -16 -32 -10 -36 5 -3 10 -1 10 5 0 6 5 8 10 5 6
-3 10 3 10 15 0 12 5 18 10 15 6 -3 10 1 10 9 0 25 -17 19 -40 -13z"/>
<path d="M808 875 c20 -9 30 -20 26 -27 -5 -7 -3 -8 5 -3 17 10 -4 30 -39 39
-18 4 -15 1 8 -9z"/>
<path d="M380 851 c0 -6 5 -13 10 -16 6 -3 10 1 10 9 0 9 -4 16 -10 16 -5 0
-10 -4 -10 -9z"/>
<path d="M525 680 c3 -5 8 -10 11 -10 2 0 4 5 4 10 0 6 -5 10 -11 10 -5 0 -7
-4 -4 -10z"/>
<path d="M551 674 c0 -11 3 -14 6 -6 3 7 2 16 -1 19 -3 4 -6 -2 -5 -13z"/>
<path d="M701 574 c0 -11 3 -14 6 -6 3 7 2 16 -1 19 -3 4 -6 -2 -5 -13z"/>
<path d="M893 552 c-8 -14 -6 -17 16 -17 18 0 27 5 27 16 0 21 -30 21 -43 1z"/>
<path d="M682 499 c-1 -27 1 -49 6 -49 10 0 13 88 4 94 -4 2 -8 -18 -10 -45z"/>
<path d="M986 525 c-11 -8 -16 -15 -10 -15 5 0 18 7 28 15 11 8 16 15 10 15
-5 0 -18 -7 -28 -15z"/>
<path d="M917 506 c-6 -16 1 -26 17 -26 6 0 4 5 -4 10 -10 6 -11 10 -2 10 6 0
12 5 12 10 0 15 -17 12 -23 -4z"/>
<path d="M860 496 c0 -2 8 -10 18 -17 15 -13 16 -12 3 4 -13 16 -21 21 -21 13z"/>
<path d="M556 477 c3 -10 9 -15 12 -12 3 3 0 11 -7 18 -10 9 -11 8 -5 -6z"/>
<path d="M821 473 c-1 -17 16 -25 25 -12 4 7 3 9 -4 5 -5 -3 -13 0 -15 6 -4 9
-6 10 -6 1z"/>
<path d="M785 430 l7 -35 -22 20 -23 20 12 -23 c8 -14 18 -21 27 -18 8 3 14 2
14 -2 0 -4 11 -12 25 -18 19 -9 27 -9 36 3 10 11 8 18 -10 36 -17 17 -21 18
-15 5 3 -10 10 -18 15 -18 5 0 9 -4 9 -10 0 -5 -7 -10 -15 -10 -8 0 -15 4 -15
8 0 4 -12 24 -26 43 l-26 34 7 -35z"/>
<path d="M555 430 c-4 -6 -11 -7 -17 -4 -7 4 -8 2 -4 -4 10 -17 36 -15 36 3 0
17 -6 19 -15 5z"/>
<path d="M572 360 c0 -14 2 -19 5 -12 2 6 2 18 0 25 -3 6 -5 1 -5 -13z"/>
<path d="M977 324 c6 -17 8 -17 21 -1 8 10 6 13 -8 14 -13 1 -17 -3 -13 -13z"/>
<path d="M940 326 c0 -2 8 -10 18 -17 15 -13 16 -12 3 4 -13 16 -21 21 -21 13z"/>
<path d="M641 294 c0 -11 3 -14 6 -6 3 7 2 16 -1 19 -3 4 -6 -2 -5 -13z"/>
<path d="M1798 2553 c6 -2 18 -2 25 0 6 3 1 5 -13 5 -14 0 -19 -2 -12 -5z"/>
<path d="M1830 2536 c0 -2 9 -6 20 -9 11 -3 20 -1 20 4 0 5 -9 9 -20 9 -11 0
-20 -2 -20 -4z"/>
<path d="M2335 2356 c-14 -10 -19 -26 -19 -69 0 -48 5 -64 33 -102 31 -43 32
-47 17 -64 -28 -30 -31 -83 -8 -105 15 -12 25 -15 37 -9 14 8 17 34 21 160 4
140 3 152 -17 177 -23 29 -37 32 -64 12z"/>
<path d="M1706 2328 c3 -4 12 -4 21 -1 12 5 14 3 8 -7 -5 -9 -4 -11 4 -6 16
10 4 25 -19 23 -10 -1 -17 -5 -14 -9z"/>
<path d="M1736 2281 c-4 -5 -2 -12 4 -16 5 -3 10 -3 10 1 0 3 6 1 14 -5 10 -8
16 -9 21 -1 3 5 4 11 1 11 -3 1 -9 2 -13 3 -5 1 -13 5 -20 9 -6 4 -14 3 -17
-2z"/>
<path d="M1983 2265 c0 -8 4 -12 9 -9 5 3 6 10 3 15 -9 13 -12 11 -12 -6z"/>
<path d="M1941 2256 c-10 -11 -9 -14 1 -12 14 2 23 15 15 22 -2 2 -10 -2 -16
-10z"/>
<path d="M1995 2221 c-3 -5 -2 -12 3 -15 5 -3 9 1 9 9 0 17 -3 19 -12 6z"/>
<path d="M1800 2191 c0 -10 19 -25 25 -20 1 2 -3 10 -11 17 -8 7 -14 8 -14 3z"/>
<path d="M1856 2192 c-3 -5 1 -9 9 -9 8 0 12 4 9 9 -3 4 -7 8 -9 8 -2 0 -6 -4
-9 -8z"/>
<path d="M1956 2177 c3 -10 9 -15 12 -12 3 3 0 11 -7 18 -10 9 -11 8 -5 -6z"/>
<path d="M1631 2158 c1 -7 5 -24 9 -38 7 -22 8 -21 9 13 1 20 -3 37 -9 37 -5
0 -10 -6 -9 -12z"/>
<path d="M1870 2166 c0 -2 7 -9 15 -16 13 -11 14 -10 9 4 -5 14 -24 23 -24 12z"/>
<path d="M1896 2103 c4 -70 4 -69 14 -53 6 9 6 18 0 24 -14 14 -13 29 1 20 8
-4 8 0 0 15 -15 27 -17 27 -15 -6z"/>
<path d="M1970 2095 c0 -5 5 -17 10 -25 5 -8 10 -10 10 -5 0 6 -5 17 -10 25
-5 8 -10 11 -10 5z"/>
<path d="M1831 2074 c0 -11 3 -14 6 -6 3 7 2 16 -1 19 -3 4 -6 -2 -5 -13z"/>
<path d="M1787 2020 c3 -36 9 -69 13 -74 10 -10 2 64 -11 109 -5 20 -6 9 -2
-35z"/>
<path d="M1932 2040 c0 -19 2 -27 5 -17 2 9 2 25 0 35 -3 9 -5 1 -5 -18z"/>
<path d="M1971 1994 c0 -11 3 -14 6 -6 3 7 2 16 -1 19 -3 4 -6 -2 -5 -13z"/>
<path d="M1880 1967 c0 -14 4 -28 8 -31 9 -5 8 41 -1 51 -4 3 -7 -5 -7 -20z"/>
<path d="M1951 1974 c0 -11 3 -14 6 -6 3 7 2 16 -1 19 -3 4 -6 -2 -5 -13z"/>
<path d="M1975 1940 c0 -16 6 -32 14 -35 10 -4 12 1 7 17 -3 13 -6 29 -6 36 0
6 -3 12 -7 12 -5 0 -8 -13 -8 -30z"/>
<path d="M1955 1942 c-5 -4 -10 -22 -10 -41 0 -25 5 -35 18 -37 13 -2 15 1 9
9 -5 7 -9 27 -8 45 0 17 1 32 1 32 0 0 -4 -4 -10 -8z"/>
<path d="M1803 1907 c-15 -29 -24 -72 -14 -61 10 11 32 76 28 81 -2 1 -9 -7
-14 -20z"/>
<path d="M1843 1887 c0 -7 -2 -17 -4 -23 -2 -7 0 -14 5 -15 11 -5 19 38 8 45
-5 3 -9 0 -9 -7z"/>
<path d="M1900 1863 c0 -12 -4 -25 -10 -28 -5 -3 -10 0 -10 7 0 7 -7 0 -15
-16 -19 -37 -19 -45 1 -20 15 18 15 18 10 -4 -3 -15 2 -30 15 -43 10 -10 15
-19 10 -19 -6 0 -13 5 -16 10 -12 19 -24 0 -16 -23 14 -35 35 -111 33 -119 -1
-4 4 -5 12 -2 8 3 17 0 22 -7 4 -8 3 -10 -4 -5 -15 9 -15 5 -2 -28 5 -14 16
-26 25 -26 16 0 18 6 16 55 -1 30 -1 30 9 6 6 -14 8 -39 5 -55 -5 -26 -4 -28
6 -13 10 18 13 17 41 -12 16 -16 30 -33 30 -38 1 -4 8 -14 17 -21 14 -11 13
-11 -6 -2 -13 6 -23 15 -23 20 0 5 -12 21 -26 36 -24 23 -26 24 -21 5 3 -12 1
-21 -5 -21 -5 0 -6 -5 -2 -11 3 -6 2 -14 -4 -18 -18 -11 -18 -33 1 -36 11 -2
17 3 17 16 0 28 34 8 51 -30 10 -23 16 -27 26 -19 10 8 13 7 13 -3 0 -12 2
-12 9 0 7 11 12 8 25 -11 9 -14 28 -30 43 -37 23 -11 25 -10 13 3 -10 13 -10
16 1 16 20 0 99 41 99 51 0 6 -4 7 -10 4 -5 -3 -16 0 -24 7 -11 11 -11 15 3
26 14 11 10 12 -24 8 -22 -3 -34 -2 -27 0 17 8 15 25 -3 18 -12 -5 -14 -2 -8
12 6 16 4 17 -9 6 -9 -7 -22 -11 -29 -10 -8 2 -13 -4 -12 -12 2 -10 -2 -8 -12
5 -8 11 -21 29 -30 40 -14 17 -16 17 -11 3 3 -10 1 -18 -5 -18 -6 0 -7 -5 -3
-12 4 -6 -4 -3 -18 8 -14 10 -24 22 -22 26 2 4 0 10 -6 13 -8 5 -8 11 0 20 8
10 7 14 -2 18 -7 3 -3 6 10 6 12 1 22 -3 22 -9 0 -5 5 -10 11 -10 8 0 8 5 -1
15 -7 8 -22 15 -34 15 -28 0 -94 70 -68 71 11 0 13 2 4 6 -8 3 -10 9 -4 16 10
14 24 62 15 53 -10 -10 -33 15 -33 35 0 11 -4 19 -10 19 -6 0 -6 -9 0 -25 6
-16 6 -25 0 -25 -6 0 -10 9 -10 21 0 11 -4 18 -9 15 -4 -3 -6 5 -4 17 2 12 -3
36 -11 52 -14 26 -16 27 -16 8z m80 -146 c-1 -21 -1 -21 -15 -3 -8 10 -12 23
-9 28 9 14 24 -2 24 -25z m100 -287 c0 -5 -2 -10 -4 -10 -3 0 -8 5 -11 10 -3
6 -1 10 4 10 6 0 11 -4 11 -10z"/>
<path d="M1966 1818 c3 -12 15 -31 25 -42 20 -21 25 -16 10 12 -5 9 -12 25
-15 35 -3 9 -10 17 -16 17 -7 0 -9 -8 -4 -22z"/>
<path d="M1110 1816 c0 -2 11 -6 25 -8 13 -3 22 -1 19 3 -5 9 -44 13 -44 5z"/>
<path d="M2080 1791 c0 -12 9 -31 20 -43 10 -12 17 -25 14 -30 -3 -4 0 -8 5
-8 15 0 14 3 -14 56 -18 34 -25 41 -25 25z"/>
<path d="M2014 1726 c-14 -11 -16 -17 -7 -26 8 -9 14 -7 23 10 15 28 9 34 -16
16z"/>
<path d="M2046 1725 c-7 -18 4 -55 16 -55 6 0 7 7 4 16 -5 14 -4 15 9 4 9 -7
13 -21 9 -35 -4 -16 1 -26 23 -40 l28 -18 -22 25 c-28 30 -30 48 -3 23 11 -10
23 -15 27 -11 4 4 3 10 -2 14 -6 4 -11 14 -13 22 -2 8 -12 24 -23 36 -10 11
-17 23 -15 25 3 3 -3 5 -14 6 -10 1 -21 -4 -24 -12z"/>
<path d="M2031 1674 c0 -11 3 -14 6 -6 3 7 2 16 -1 19 -3 4 -6 -2 -5 -13z"/>
<path d="M2004 1645 c1 -10 10 -22 20 -27 27 -15 28 -4 2 21 -20 19 -24 20
-22 6z"/>
<path d="M1186 1595 c4 -39 31 -74 72 -93 20 -9 39 -20 42 -24 3 -3 18 -10 33
-13 15 -4 27 -13 27 -20 0 -8 5 -17 11 -20 16 -10 69 -12 63 -3 -7 12 5 48 17
48 5 0 9 -6 9 -14 0 -22 29 -46 55 -46 30 0 55 25 55 56 0 27 12 31 30 9 7 -9
15 -13 18 -11 2 3 20 -1 38 -9 20 -8 36 -10 39 -4 4 5 3 9 -2 9 -4 0 -2 4 6 9
11 7 9 11 -9 21 -20 11 -22 10 -17 -4 8 -20 3 -20 -28 0 -24 16 -25 34 -2 34
7 0 6 -4 -3 -10 -13 -8 -12 -10 3 -10 9 0 17 5 17 10 0 6 8 10 18 10 14 0 15
2 2 9 -8 6 -17 8 -20 6 -3 -2 -6 5 -6 16 0 10 4 19 9 19 4 0 6 4 2 10 -3 5
-13 6 -22 3 -11 -4 -14 -3 -9 5 5 8 -1 12 -16 12 -13 0 -30 5 -38 10 -10 6
-25 3 -50 -11 -23 -14 -36 -17 -38 -10 -3 9 -8 9 -17 1 -16 -13 -157 -21 -175
-10 -7 5 -21 3 -31 -3 -13 -8 -22 -7 -35 4 -16 12 -17 12 -11 -4 4 -11 3 -16
-3 -12 -6 3 -10 12 -10 19 0 8 -6 19 -14 25 -11 9 -13 6 -10 -14z m447 -48 c3
-8 -1 -14 -9 -14 -15 0 -18 9 -7 20 9 9 10 9 16 -6z m-233 -118 c0 -6 -4 -7
-10 -4 -5 3 -10 11 -10 16 0 6 5 7 10 4 6 -3 10 -11 10 -16z"/>
<path d="M2171 1585 c0 -5 6 -19 14 -29 8 -11 15 -15 15 -10 0 6 -7 19 -15 30
-8 10 -14 15 -14 9z"/>
<path d="M2120 1570 c0 -5 5 -10 11 -10 5 0 7 5 4 10 -3 6 -8 10 -11 10 -2 0
-4 -4 -4 -10z"/>
<path d="M1949 1528 c-7 -14 -6 -65 0 -76 7 -13 11 -11 21 7 13 26 6 56 -12
45 -8 -5 -9 -2 -5 9 3 10 4 17 2 17 -3 0 -6 -1 -6 -2z m13 -60 c-8 -8 -9 -4
-5 13 4 13 8 18 11 10 2 -7 -1 -18 -6 -23z"/>
<path d="M1990 1410 c0 -5 5 -10 11 -10 5 0 7 5 4 10 -3 6 -8 10 -11 10 -2 0
-4 -4 -4 -10z"/>
<path d="M1400 1392 c0 -5 6 -9 13 -10 6 0 28 -3 47 -6 24 -4 29 -3 15 3 -36
15 -75 22 -75 13z"/>
<path d="M2401 1374 c0 -11 3 -14 6 -6 3 7 2 16 -1 19 -3 4 -6 -2 -5 -13z"/>
<path d="M2040 1300 c0 -5 5 -10 11 -10 5 0 7 5 4 10 -3 6 -8 10 -11 10 -2 0
-4 -4 -4 -10z"/>
<path d="M2402 1262 c-13 -2 -21 -9 -19 -15 5 -15 19 -18 36 -8 20 13 10 27
-17 23z"/>
<path d="M1397 1172 c4 -9 15 -30 25 -47 9 -16 29 -51 42 -76 34 -62 128 -134
109 -81 -4 9 -18 29 -32 43 -14 14 -48 58 -76 97 -48 69 -81 100 -68 64z"/>
<path d="M1245 1000 c3 -5 8 -10 11 -10 2 0 4 5 4 10 0 6 -5 10 -11 10 -5 0
-7 -4 -4 -10z"/>
<path d="M1535 941 c-2 -5 3 -15 12 -22 9 -8 14 -9 10 -2 -4 6 -2 13 5 15 8 3
6 7 -5 11 -9 3 -19 2 -22 -2z"/>
<path d="M2498 783 c-24 -49 -53 -122 -62 -163 -10 -41 -32 -113 -50 -160 -17
-47 -30 -88 -29 -92 2 -4 -6 -25 -17 -45 -10 -21 -24 -49 -29 -63 -6 -14 -15
-32 -19 -40 -24 -43 -92 -199 -92 -211 0 -5 81 -9 180 -9 l180 0 0 435 c0 240
-4 435 -9 435 -4 0 -28 -39 -53 -87z m-111 -765 c-3 -7 -5 -2 -5 12 0 14 2 19
5 13 2 -7 2 -19 0 -25z"/>
<path d="M1668 773 c6 -2 9 -10 5 -16 -3 -7 -3 -9 2 -5 4 4 15 2 24 -4 10 -8
9 -4 -3 10 -11 12 -24 22 -30 21 -6 0 -6 -3 2 -6z"/>
<path d="M1673 733 c-17 -6 -17 -23 0 -23 8 0 14 7 14 15 0 8 -1 15 -1 14 -1
0 -7 -3 -13 -6z"/>
<path d="M1300 579 c0 -6 12 -22 28 -36 15 -15 21 -23 13 -18 -9 5 -12 4 -8
-2 4 -6 18 -10 32 -10 25 0 25 0 8 21 -18 21 -18 21 3 4 26 -23 30 -22 37 2 5
19 -8 29 -15 11 -1 -5 -24 1 -50 14 -27 13 -48 19 -48 14z"/>
<path d="M1435 580 c-3 -5 1 -10 10 -10 9 0 13 5 10 10 -3 6 -8 10 -10 10 -2
0 -7 -4 -10 -10z"/>
<path d="M1405 509 c-4 -6 -5 -11 -4 -12 2 -2 13 -9 24 -17 19 -14 19 -14 5 4
-14 18 -13 19 2 13 12 -4 15 -2 11 9 -6 16 -29 19 -38 3z"/>
<path d="M2225 507 c-4 -10 -3 -23 3 -29 14 -14 21 3 12 27 -7 19 -8 19 -15 2z"/>
<path d="M1970 480 c0 -5 5 -10 11 -10 5 0 7 5 4 10 -3 6 -8 10 -11 10 -2 0
-4 -4 -4 -10z"/>
<path d="M1626 437 c3 -10 9 -15 12 -12 3 3 0 11 -7 18 -10 9 -11 8 -5 -6z"/>
<path d="M1532 404 c10 -10 20 -16 22 -13 3 3 -5 11 -17 18 -21 13 -21 12 -5
-5z"/>
<path d="M1320 386 c0 -2 9 -6 20 -9 11 -3 18 -1 14 4 -5 9 -34 13 -34 5z"/>
<path d="M2007 369 c4 -13 8 -18 11 -10 2 7 -1 18 -6 23 -8 8 -9 4 -5 -13z"/>
<path d="M1791 354 c0 -11 3 -14 6 -6 3 7 2 16 -1 19 -3 4 -6 -2 -5 -13z"/>
<path d="M1459 321 c11 -7 10 -10 -5 -14 -16 -4 -17 -5 -1 -6 9 0 17 -5 17
-11 0 -5 -8 -10 -17 -11 -12 0 -13 -2 -5 -6 7 -3 21 2 31 11 10 9 21 13 24 9
4 -3 7 -4 7 0 0 12 -32 37 -48 37 -14 0 -14 -2 -3 -9z"/>
<path d="M1761 313 c0 -12 2 -14 6 -4 5 11 7 11 15 0 8 -12 9 -12 6 0 -6 22
-28 25 -27 4z"/>
<path d="M1865 313 c2 -10 4 -20 4 -23 2 -7 21 23 21 33 0 4 -6 7 -14 7 -8 0
-13 -8 -11 -17z"/>
<path d="M1370 306 c0 -2 7 -7 16 -10 8 -3 12 -2 9 4 -6 10 -25 14 -25 6z"/>
<path d="M1548 293 c-9 -2 -19 -11 -22 -19 -4 -11 -1 -11 19 2 14 9 25 18 25
20 0 2 -1 3 -2 3 -2 -1 -10 -3 -20 -6z"/>
<path d="M1590 270 c0 -5 5 -10 11 -10 5 0 7 5 4 10 -3 6 -8 10 -11 10 -2 0
-4 -4 -4 -10z"/>
<path d="M1795 261 c-3 -5 -1 -12 5 -16 5 -3 10 1 10 9 0 18 -6 21 -15 7z"/>
<path d="M1378 253 c6 -2 18 -2 25 0 6 3 1 5 -13 5 -14 0 -19 -2 -12 -5z"/>
<path d="M1566 233 c-6 -14 -5 -15 5 -6 7 7 10 15 7 18 -3 3 -9 -2 -12 -12z"/>
<path d="M1506 215 c10 -8 30 -14 44 -14 20 0 17 3 -15 14 -50 18 -53 18 -29
0z"/>
<path d="M1526 179 c2 -4 -1 -9 -8 -11 -7 -3 -8 -7 -3 -10 6 -3 18 3 29 13 18
17 18 18 -2 16 -11 0 -19 -4 -16 -8z"/>
<path d="M1503 129 c-2 -23 10 -25 27 -4 7 8 16 12 21 9 5 -3 9 0 9 5 0 14
-17 14 -25 1 -5 -7 -11 -8 -19 -1 -8 7 -12 4 -13 -10z"/>
<path d="M1636 141 c-3 -4 6 -7 19 -7 14 0 22 2 19 5 -8 8 -34 10 -38 2z"/>
<path d="M1610 131 c0 -8 -7 -11 -17 -6 -15 5 -16 4 -5 -6 9 -10 15 -10 24 -1
6 6 9 15 5 19 -4 3 -7 1 -7 -6z"/>
<path d="M1644 106 c-3 -8 -14 -13 -25 -11 -13 3 -17 0 -12 -8 5 -8 2 -8 -9 1
-13 10 -17 10 -22 -4 -8 -22 -9 -22 19 -16 14 2 25 8 25 13 0 5 3 8 8 7 12 -2
42 14 42 23 0 14 -20 10 -26 -5z"/>
</g>
</svg>
